<svg xmlns="http://www.w3.org/2000/svg" width="73.355" height="72.252" viewBox="0 0 73.355 72.252">
  <g id="gb_logo" transform="translate(-291.547 -676.626)">
    <g id="Group_277" data-name="Group 277" transform="translate(296.777 685.349)">
      <path id="Path_409" data-name="Path 409" d="M314.784,741.73l23.662-7.251,1.232-2.132-1.233-2.135H314.784l-3.325,5.759Z" transform="translate(-294.121 -678.201)" fill="#00ffb1"/>
      <path id="Path_410" data-name="Path 410" d="M301.716,684.322l-5.554,24.118,1.231,2.132h2.466l11.831-20.49-3.325-5.76Z" transform="translate(-296.162 -684.322)" fill="#00ffb1"/>
      <path id="Path_411" data-name="Path 411" d="M358.836,702.789l-18.11-16.867h-2.461l-1.235,2.136,11.832,20.49h6.649Z" transform="translate(-290.71 -684.109)" fill="#00ffb1"/>
    </g>
    <g id="Group_278" data-name="Group 278" transform="translate(291.547 676.626)">
      <path id="Path_412" data-name="Path 412" d="M347.929,735.767l5.551-24.117-1.23-2.133h-2.468l-11.829,20.491,3.327,5.759Z" transform="translate(-285.357 -672.238)" fill="#00ffb1"/>
      <path id="Path_413" data-name="Path 413" d="M291.547,716.874l18.108,16.868h2.463l1.232-2.135-11.829-20.491h-6.65Z" transform="translate(-291.547 -672.025)" fill="#00ffb1"/>
      <path id="Path_414" data-name="Path 414" d="M336.352,676.626l-23.662,7.249-1.231,2.133,1.233,2.135h23.66l3.326-5.758Z" transform="translate(-288.891 -676.626)" fill="#00ffb1"/>
      <path id="Path_415" data-name="Path 415" d="M337.877,691.219H315.259l-11.3,19.584,11.133,19.283.176.3,22.614,0,11.309-19.588Z" transform="translate(-289.892 -674.679)" fill="#00ffb1"/>
    </g>
  </g>
</svg>
