<svg xmlns="http://www.w3.org/2000/svg" width="44" height="44" viewBox="0 0 44 44">
  <g id="wrench_icon" transform="translate(-1087.297 -385.717)">
    <path id="Path_344" data-name="Path 344" d="M1122.844,440.611a10.225,10.225,0,0,0,2.222-11.131l-7.148,7.148-5.549-5.549,7.148-7.148a10.226,10.226,0,0,0-13.353,13.353l-8.423,8.423,5.549,5.549,8.423-8.423A10.225,10.225,0,0,0,1122.844,440.611Z" transform="translate(-6.378 -25.629)"/>
    <path id="Path_345" data-name="Path 345" d="M1110.315,485.753" transform="translate(-15.343 -70.261)" fill="none" stroke="#fff" stroke-width="7"/>
    <path id="Path_346" data-name="Path 346" d="M1102.859,422.7a16.283,16.283,0,0,0,1.809.665l.786,4.857h7.527l.692-4.709a16.386,16.386,0,0,0,3.512-1.384l3.889,2.806,5.323-5.323-2.749-3.7a16.388,16.388,0,0,0,1.572-3.61l4.577-.74v-7.527l-4.43-.651a16.375,16.375,0,0,0-1.51-3.764l2.654-3.679-5.323-5.323-3.581,2.663a16.373,16.373,0,0,0-3.739-1.564l-.727-4.5h-7.527l-.663,4.51a16.361,16.361,0,0,0-3.634,1.517l-3.8-2.74-5.323,5.323,2.813,3.783a16.358,16.358,0,0,0-1.435,3.491l-4.777.773V411.4l4.788.7a16.557,16.557,0,0,0,.584,1.7" fill="none" stroke="#000" stroke-width="3"/>
    <path id="Path_347" data-name="Path 347" d="M1132.389,508.147" transform="translate(-31.083 -86.229)" fill="none" stroke="#fff" stroke-width="7"/>
    <path id="Path_348" data-name="Path 348" d="M1118.8,518.253" transform="translate(-21.393 -93.436)" fill="none" stroke="#fff" stroke-width="7"/>
  </g>
</svg>
